<?xml version="1.0" standalone="no"?>
<!DOCTYPE svg PUBLIC "-//W3C//DTD SVG 20010904//EN"
 "http://www.w3.org/TR/2001/REC-SVG-20010904/DTD/svg10.dtd">
<svg version="1.0" xmlns="http://www.w3.org/2000/svg"
 width="450.000000pt" height="331.000000pt" viewBox="0 0 450.000000 331.000000"
 preserveAspectRatio="xMidYMid meet">
<metadata>
Created by potrace 1.16, written by Peter Selinger 2001-2019
</metadata>
<g transform="translate(0.000000,331.000000) scale(0.100000,-0.100000)"
fill="#000000" stroke="none">
<path d="M2043 2953 c-45 -3 -53 -7 -53 -24 0 -19 -14 -23 -72 -19 -21 1 -27
-4 -30 -22 -3 -20 -10 -24 -53 -28 -42 -4 -50 -8 -55 -30 -3 -14 -12 -25 -20
-26 -36 -2 -41 -5 -38 -21 2 -12 -4 -19 -19 -21 -18 -3 -23 -10 -23 -33 0 -26
-3 -29 -20 -24 -20 6 -22 4 -24 -40 -1 -13 -9 -21 -23 -23 -19 -3 -22 -11 -25
-50 -2 -38 -6 -46 -21 -44 -9 2 -20 -3 -23 -11 -3 -8 -7 -97 -8 -198 -5 -287
-1 -259 -36 -259 -29 0 -32 -3 -34 -45 -1 -14 -7 -19 -20 -17 -14 3 -17 -1
-12 -13 3 -9 6 -70 6 -135 0 -115 1 -119 23 -122 32 -4 38 -67 8 -75 -14 -3
-21 -13 -21 -29 0 -23 -3 -24 -65 -24 -58 0 -65 -2 -65 -20 0 -15 -7 -20 -29
-20 -17 0 -33 -4 -36 -10 -3 -5 -19 -10 -35 -10 -25 0 -29 -4 -27 -22 2 -19
-4 -24 -30 -26 -25 -3 -33 -8 -33 -23 0 -14 -9 -21 -30 -25 -30 -6 -30 -7 -30
-73 0 -59 2 -67 23 -76 17 -8 23 -20 25 -52 3 -35 7 -43 23 -43 17 0 19 -7 19
-60 0 -53 2 -60 20 -60 17 0 20 -7 20 -45 0 -38 3 -45 20 -45 16 0 20 -7 20
-35 0 -24 5 -35 15 -35 12 0 15 -14 15 -70 0 -52 3 -70 14 -70 7 0 13 -10 12
-23 -1 -20 -7 -22 -65 -27 -52 -4 -65 -9 -71 -25 -6 -17 -15 -19 -103 -16
l-97 3 0 -26 0 -26 -89 0 c-85 0 -89 -1 -84 -20 5 -20 1 -21 -62 -19 -53 2
-71 -2 -80 -15 -7 -9 -22 -16 -34 -16 -20 0 -22 -4 -19 -47 3 -44 5 -48 28
-48 21 0 25 -4 23 -27 -1 -18 4 -28 18 -31 26 -7 25 -47 -1 -54 -18 -5 -20
-14 -20 -74 0 -62 -2 -69 -20 -69 -15 0 -20 -7 -21 -27 0 -16 -2 -57 -3 -93
-2 -72 8 -114 26 -108 7 3 15 15 18 29 7 27 50 41 50 16 0 -9 -5 -17 -12 -19
-6 -2 -8 -10 -4 -17 5 -8 12 -9 20 -2 7 6 34 8 64 4 51 -6 52 -5 52 21 0 33
22 30 30 -4 4 -19 12 -23 44 -24 29 -1 40 3 44 17 5 21 22 23 22 2 0 -17 8
-18 130 -14 47 2 104 2 127 1 33 -1 45 3 53 18 14 26 28 25 32 -2 4 -29 38
-38 38 -10 0 27 29 51 40 32 4 -7 6 -18 4 -24 -3 -7 19 -12 61 -13 57 -3 66
-1 76 19 10 18 13 19 23 7 11 -13 50 -39 60 -39 3 0 2 16 -1 36 -5 29 -3 36 8
32 8 -2 15 -15 17 -27 4 -28 27 -37 49 -20 13 11 17 11 20 2 3 -7 13 -13 23
-13 10 0 20 6 23 13 3 9 10 7 25 -6 13 -12 28 -16 41 -12 17 5 21 15 21 48 0
35 4 44 26 54 22 10 24 9 20 -5 -3 -9 -6 -33 -8 -52 -3 -33 -1 -35 30 -38 31
-3 32 -2 32 32 0 19 -5 38 -11 42 -6 3 -9 15 -6 25 3 12 -2 24 -15 33 -14 10
-16 15 -6 20 10 5 10 7 1 12 -7 3 -13 13 -13 23 0 9 -5 22 -11 28 -8 8 -5 17
11 33 21 21 29 22 90 16 50 -4 69 -3 73 7 3 9 7 9 20 -2 12 -10 14 -18 7 -31
-13 -25 -13 -30 4 -30 17 0 28 -24 20 -45 -4 -10 0 -15 11 -15 13 0 16 -8 14
-37 -5 -84 0 -111 21 -118 11 -4 34 1 52 9 38 20 38 20 38 1 0 -18 55 -21 66
-4 4 7 6 39 6 73 -2 71 4 96 23 96 14 0 30 64 20 80 -4 6 26 10 79 10 51 0 86
4 86 10 0 6 -7 10 -16 10 -9 0 -14 6 -11 13 3 11 65 12 76 1 2 -2 4 -20 5 -41
1 -32 -2 -38 -21 -41 -26 -4 -32 -22 -7 -22 8 0 12 -5 8 -11 -3 -6 -15 -9 -25
-6 -10 3 -21 2 -24 -3 -3 -4 6 -11 20 -14 31 -8 32 -24 3 -28 -19 -2 -22 -8
-20 -35 2 -17 -1 -34 -7 -38 -7 -4 -11 5 -12 22 -1 25 -2 24 -11 -10 -13 -48
-5 -67 27 -67 22 0 25 3 19 26 -6 25 -5 26 20 20 31 -8 37 17 9 33 -25 13 -11
23 21 15 26 -6 36 -37 16 -49 -16 -10 -11 -43 8 -49 34 -10 93 -4 108 12 14
14 17 14 24 1 5 -8 21 -15 37 -14 21 0 29 5 31 22 4 25 22 32 22 8 0 -8 4 -15
9 -15 5 0 17 -3 26 -6 14 -6 16 -2 13 21 -2 16 2 30 10 32 7 3 12 -5 12 -20 0
-20 6 -26 30 -29 24 -4 30 -1 30 13 0 26 18 32 25 9 3 -11 10 -20 15 -20 5 0
15 -3 24 -6 13 -5 16 1 16 25 0 17 5 31 10 31 6 0 10 -11 10 -24 0 -38 17 -40
49 -4 25 28 31 30 45 19 23 -19 20 -29 -11 -33 -16 -2 -28 -7 -28 -11 0 -5
102 -11 228 -13 l227 -4 0 22 0 22 20 -22 c26 -28 33 -28 66 3 33 31 46 32 39
2 -6 -21 -4 -22 77 -22 l83 0 -3 40 c-13 189 -13 185 -33 185 -17 0 -19 8 -19
75 0 68 -2 75 -20 75 -15 0 -20 7 -20 29 0 16 6 31 14 34 9 4 12 14 9 26 -5
19 -2 20 26 15 l31 -6 0 56 c0 53 -1 56 -24 56 -13 0 -26 5 -28 12 -3 7 -28
12 -68 12 -54 1 -66 4 -75 21 -9 18 -18 20 -87 17 -78 -3 -78 -3 -78 22 l0 26
-95 0 c-88 0 -95 1 -95 20 0 18 -7 20 -69 20 -60 0 -69 2 -74 20 -3 11 -1 23
4 26 5 3 9 30 9 60 0 41 4 54 15 54 11 0 15 12 15 50 0 43 3 50 20 50 17 0 20
7 20 50 0 43 3 50 20 50 17 0 20 7 20 50 0 40 3 50 16 50 14 0 16 7 11 40 -5
37 -3 40 14 35 14 -5 19 -1 19 13 0 11 7 22 15 26 15 5 14 34 -3 76 -3 8 -6
29 -6 45 -1 24 -6 31 -25 33 -13 2 -26 12 -28 22 -3 11 -16 20 -32 22 -18 2
-26 9 -26 23 0 11 -7 21 -15 22 -77 10 -91 15 -88 31 3 14 -7 17 -64 20 -64 3
-67 4 -70 30 -2 22 -8 26 -25 24 -20 -3 -23 1 -23 32 0 29 4 36 20 36 19 0 20
7 20 144 0 119 -3 145 -15 150 -8 3 -15 15 -15 26 0 16 -7 20 -31 20 -28 0
-30 2 -29 33 1 17 2 123 1 234 -1 201 -1 202 -23 205 -13 2 -23 10 -24 18 -1
8 -2 26 -2 40 -1 16 -11 29 -24 35 -14 6 -24 21 -26 38 -2 19 -9 27 -23 27
-14 0 -19 7 -19 25 0 20 -5 25 -24 25 -18 0 -25 6 -28 23 -2 16 -10 22 -28 22
-17 0 -26 7 -30 25 -5 22 -12 25 -57 28 -42 2 -51 6 -46 19 8 19 -16 34 -44
27 -29 -8 -63 4 -63 21 0 8 -5 17 -12 21 -13 8 -259 13 -345 7z m53 -82 c-8
-13 -36 -15 -36 -3 0 4 5 13 12 20 14 14 34 0 24 -17z m83 15 c9 -10 9 -16 1
-21 -13 -8 -42 14 -34 26 8 13 20 11 33 -5z m107 3 c3 -6 1 -16 -4 -21 -13
-13 -45 8 -36 23 7 12 31 11 40 -2z m-46 -44 c7 -8 16 -12 21 -9 5 3 6 -2 3
-10 -11 -28 -64 -16 -64 15 0 23 23 25 40 4z m100 -21 c0 -16 -26 -19 -35 -4
-4 6 -4 18 -1 27 5 12 9 13 21 3 8 -7 15 -19 15 -26z m-356 -19 c-3 -33 1 -47
13 -53 12 -7 14 -18 10 -40 -5 -26 -3 -31 18 -36 20 -5 25 -13 25 -40 0 -22 6
-36 16 -40 9 -3 14 -13 10 -21 -9 -24 23 -31 129 -30 106 1 109 2 89 49 -6 17
-4 18 19 12 25 -6 26 -5 29 46 3 49 5 53 31 56 25 3 27 7 29 55 0 29 1 60 0
70 -1 13 6 17 34 17 31 0 35 -3 29 -20 -6 -18 -2 -20 50 -20 54 0 56 -1 62
-30 5 -26 10 -30 39 -30 39 0 48 -27 12 -32 -15 -2 -24 -11 -26 -25 -2 -15
-10 -23 -23 -23 -11 0 -19 -7 -19 -18 0 -9 -10 -22 -22 -27 -20 -9 -23 -17
-22 -63 1 -29 4 -56 7 -58 3 -3 32 -8 65 -11 59 -6 60 -6 51 -30 -5 -13 -9
-35 -9 -48 0 -18 -6 -24 -27 -27 -22 -2 -28 -8 -28 -28 0 -21 -5 -26 -32 -28
-29 -3 -31 -6 -35 -45 -3 -23 -1 -47 5 -54 18 -24 1 -37 -20 -14 l-20 22 -7
-23 c-3 -13 -6 -38 -6 -55 0 -26 -4 -33 -20 -33 -14 0 -20 -7 -20 -21 0 -19
-4 -21 -33 -16 -34 5 -57 -13 -57 -46 0 -7 -9 -13 -20 -13 -12 0 -19 5 -16 13
3 7 1 15 -5 19 -6 3 -13 -3 -16 -15 -3 -12 -9 -21 -14 -21 -5 0 -9 -13 -9 -29
0 -26 4 -30 33 -33 20 -2 32 -8 32 -18 0 -15 -7 -16 -37 -5 -24 9 -41 -26 -28
-59 9 -25 47 -53 57 -42 3 3 -4 17 -16 32 -15 20 -19 30 -11 38 8 8 21 -1 47
-32 28 -34 38 -40 49 -31 8 6 14 18 14 26 0 8 5 11 10 8 6 -3 10 -15 10 -26 0
-10 7 -19 15 -19 8 0 15 5 15 10 0 6 5 10 10 10 6 0 10 -28 10 -64 0 -39 5
-68 12 -72 6 -4 14 -2 16 4 7 22 22 13 22 -13 0 -17 5 -25 18 -25 37 0 62 -29
62 -71 0 -26 -5 -42 -15 -45 -12 -5 -15 -25 -15 -89 0 -100 -5 -115 -36 -115
-24 0 -28 -7 -24 -47 1 -16 -3 -21 -13 -17 -15 5 -27 -22 -27 -63 0 -25 -10
-29 -26 -13 -7 7 -16 6 -28 -3 -16 -11 -16 -17 -6 -34 11 -16 10 -24 -5 -46
-17 -27 -35 -36 -35 -18 0 6 5 13 10 16 10 6 15 45 6 45 -2 0 -11 3 -20 6 -12
5 -16 0 -16 -21 0 -23 -2 -25 -14 -15 -8 6 -16 26 -18 43 -2 24 -8 32 -22 32
-11 0 -21 6 -24 13 -2 7 5 12 18 12 16 0 21 5 18 23 -3 21 -8 22 -102 25 l-99
3 6 -40 c4 -33 2 -40 -14 -44 -10 -3 -23 -16 -28 -30 -12 -30 -41 -44 -41 -19
0 9 -9 23 -20 30 -11 7 -20 23 -20 37 0 22 -3 24 -19 15 -26 -13 -31 -13 -31
4 0 8 -8 21 -18 28 -28 21 -42 64 -42 129 0 51 -2 59 -17 57 -13 -2 -19 5 -21
22 -2 14 -10 32 -18 41 -10 12 -14 34 -12 70 3 48 6 54 26 57 13 2 26 10 29
18 3 8 12 14 20 14 9 0 13 8 11 22 -2 18 2 22 22 23 23 0 25 3 22 37 -3 31 0
37 20 41 l23 4 -22 8 c-14 4 -23 15 -23 27 0 14 6 19 23 16 14 -2 21 -9 21
-20 -1 -14 5 -17 27 -14 37 4 49 15 23 22 -25 6 -48 40 -34 49 16 10 50 -5 50
-21 0 -16 2 -16 24 -8 20 8 21 44 1 44 -8 0 -15 9 -15 20 0 15 7 20 25 20 16
0 25 -6 25 -15 0 -9 9 -15 21 -15 15 0 19 4 15 16 -4 9 -1 23 5 31 10 11 8 15
-9 20 -12 3 -22 11 -22 18 0 8 -10 15 -22 17 -15 2 -23 10 -23 23 0 17 -6 19
-43 17 -39 -3 -42 -2 -42 22 0 21 -5 26 -25 26 -18 0 -25 5 -25 20 0 30 -21
69 -35 64 -8 -4 -12 12 -12 55 -1 72 -6 81 -44 81 -22 0 -29 5 -29 20 0 15 -7
20 -29 20 -25 0 -31 5 -36 30 -10 44 -22 37 -27 -15 -2 -25 0 -45 4 -45 5 0 8
5 8 10 0 6 5 10 10 10 6 0 10 -9 10 -19 0 -14 8 -21 28 -23 21 -2 27 -8 27
-26 0 -13 5 -26 11 -30 6 -4 9 -35 6 -79 l-4 -73 -49 0 -49 0 0 -35 c0 -23 4
-33 13 -31 53 17 67 16 67 -4 0 -11 7 -20 15 -20 8 0 15 -4 15 -9 0 -20 -33
-41 -65 -41 -40 0 -47 -8 -39 -48 7 -35 31 -49 48 -27 13 17 28 9 45 -22 7
-15 21 -23 36 -23 23 0 25 -4 25 -45 0 -62 -20 -80 -89 -80 -51 0 -55 2 -73
35 -15 28 -24 35 -49 35 -34 0 -31 -9 -40 130 -3 45 -1 50 19 53 30 5 28 18
-4 26 -22 6 -25 11 -21 34 3 15 9 35 12 45 5 12 2 17 -10 17 -12 0 -16 -6 -12
-20 4 -15 0 -20 -15 -20 -17 0 -19 5 -14 33 3 17 7 60 8 95 2 52 5 62 20 62
10 0 18 5 18 10 0 6 -9 10 -20 10 -13 0 -20 7 -20 20 0 24 28 27 45 3 7 -9 17
-13 23 -9 16 10 15 27 0 21 -18 -6 -71 43 -64 58 22 46 50 77 70 77 9 0 16 8
16 19 0 23 19 38 29 24 8 -13 87 -23 98 -13 4 5 24 10 43 12 l34 3 0 55 c0 49
-2 55 -24 60 -20 5 -25 12 -23 34 2 27 1 28 -17 11 -19 -17 -20 -17 -20 2 0
11 -9 27 -19 34 -11 8 -21 23 -23 34 -2 16 3 21 29 23 24 2 33 9 35 25 3 19 9
22 58 23 50 1 55 3 52 23 -3 17 2 21 26 21 29 0 29 -1 26 -45z m154 28 c-2
-10 -10 -18 -18 -18 -8 0 -16 8 -18 18 -2 12 3 17 18 17 15 0 20 -5 18 -17z
m-48 -39 c0 -8 -2 -14 -4 -14 -2 0 -11 -3 -20 -6 -11 -4 -16 0 -16 13 0 11 3
22 6 26 10 9 34 -4 34 -19z m102 9 c24 -21 23 -43 -2 -43 -21 0 -40 27 -33 48
6 16 13 15 35 -5z m111 -17 c7 -18 -1 -26 -25 -26 -18 0 -25 20 -11 33 11 12
31 8 36 -7z m-183 -31 c0 -8 -4 -15 -10 -15 -5 0 -10 7 -10 15 0 8 5 15 10 15
6 0 10 -7 10 -15z m130 -15 c0 -11 -7 -20 -15 -20 -8 0 -15 9 -15 20 0 11 7
20 15 20 8 0 15 -9 15 -20z m80 0 c0 -11 -4 -20 -10 -20 -5 0 -10 9 -10 20 0
11 5 20 10 20 6 0 10 -9 10 -20z m-162 -13 c2 -10 -3 -17 -12 -17 -10 0 -16 9
-16 21 0 24 23 21 28 -4z m-73 -7 c-3 -5 -13 -10 -21 -10 -8 0 -14 5 -14 10 0
6 9 10 21 10 11 0 17 -4 14 -10z m122 -34 c-9 -23 -37 -20 -37 3 0 21 20 33
34 20 5 -4 6 -15 3 -23z m83 3 c0 -23 -28 -26 -37 -3 -6 16 15 37 29 28 4 -3
8 -14 8 -25z m-555 -27 c0 -33 -19 -31 -22 1 -1 18 2 27 10 24 7 -2 12 -13 12
-25z m405 13 c10 -12 10 -19 2 -27 -13 -13 -42 6 -42 28 0 19 24 18 40 -1z
m108 -27 c-5 -32 -28 -35 -28 -4 0 17 5 26 16 26 10 0 14 -7 12 -22z m412 2
c0 -11 -4 -20 -10 -20 -5 0 -10 9 -10 20 0 11 5 20 10 20 6 0 10 -9 10 -20z
m60 -6 c0 -16 -23 -44 -35 -44 -15 0 -21 31 -8 43 8 8 43 9 43 1z m-530 -40
c0 -16 -26 -19 -35 -4 -4 6 -4 18 -1 27 5 12 9 13 21 3 8 -7 15 -19 15 -26z
m-489 4 c-4 -12 -14 -24 -21 -26 -9 -3 -11 1 -7 12 4 10 7 22 7 27 0 5 7 9 15
9 11 0 12 -6 6 -22z m93 0 c17 -24 22 -68 7 -68 -5 0 -12 11 -15 25 -4 14 -11
25 -16 25 -6 0 -10 9 -10 20 0 26 15 25 34 -2z m826 -9 c0 -5 -9 -9 -20 -9
-15 0 -20 -7 -20 -25 0 -29 -12 -32 -31 -9 -10 13 -10 17 2 24 8 5 14 14 14
20 0 18 28 30 42 18 7 -6 13 -14 13 -19z m-510 11 c0 -13 -11 -13 -30 0 -12 8
-11 10 8 10 12 0 22 -4 22 -10z m-370 -50 c0 -11 -7 -20 -15 -20 -15 0 -21 21
-8 33 12 13 23 7 23 -13z m908 3 c-2 -10 -8 -18 -13 -18 -5 0 -11 8 -13 18 -2
10 3 17 13 17 10 0 15 -7 13 -17z m-990 -35 c3 -13 -3 -18 -22 -18 -27 0 -41
14 -31 31 10 16 49 6 53 -13z m1050 -26 c3 -32 17 -43 24 -20 3 7 7 6 11 -5 4
-11 1 -17 -8 -17 -21 0 -20 -56 2 -68 14 -9 14 -11 -5 -21 -28 -15 -28 -47 -2
-61 11 -6 20 -17 20 -25 0 -7 10 -15 22 -17 27 -4 37 -28 11 -28 -10 0 -29 12
-42 25 -13 14 -26 24 -28 21 -7 -7 9 -56 18 -56 15 0 10 -22 -7 -35 -15 -11
-15 -15 1 -49 17 -35 17 -39 2 -47 -12 -7 -15 -18 -10 -39 4 -22 1 -31 -11
-36 -22 -9 -20 -24 3 -24 27 0 33 -13 38 -87 4 -62 4 -65 -16 -58 -18 5 -21 2
-21 -19 0 -16 6 -26 15 -26 8 0 15 -7 15 -15 0 -17 -16 -20 -25 -5 -7 12 -45
14 -45 2 0 -5 -6 -16 -13 -26 -10 -14 -17 -15 -41 -6 -20 7 -32 8 -40 0 -7 -7
-4 -10 8 -10 10 0 16 -6 13 -12 -6 -19 -32 -11 -66 21 -26 24 -31 37 -31 75 0
49 5 54 36 31 24 -18 48 -19 41 -1 -9 23 30 57 58 50 18 -4 26 0 36 17 9 17 9
24 0 27 -6 2 -11 10 -11 18 0 9 -11 14 -33 14 -25 0 -36 6 -43 23 -14 31 -6
57 17 57 11 0 23 10 28 22 l8 21 16 -23 c9 -13 18 -22 19 -19 12 19 28 50 28
54 0 3 -29 5 -64 5 -40 0 -68 5 -72 12 -4 7 -10 40 -12 74 -3 56 -2 62 18 67
12 3 20 11 18 19 -5 23 33 69 52 63 16 -5 19 2 23 52 8 84 18 124 31 120 6 -2
12 -18 14 -35z m82 28 c0 -5 -7 -10 -15 -10 -8 0 -15 5 -15 10 0 6 7 10 15 10
8 0 15 -4 15 -10z m-1190 -50 c0 -5 -4 -10 -10 -10 -5 0 -10 5 -10 10 0 6 5
10 10 10 6 0 10 -4 10 -10z m1198 -54 c6 -28 -13 -40 -32 -21 -13 14 -14 20
-5 31 15 18 33 13 37 -10z m-8 -81 c0 -16 -27 -32 -37 -22 -3 4 -3 13 0 22 8
20 37 20 37 0z m8 -183 c3 -18 -2 -22 -22 -22 -28 0 -34 18 -14 38 17 17 32
10 36 -16z m-903 8 c3 -6 -1 -13 -10 -16 -19 -8 -30 0 -20 15 8 14 22 14 30 1z
m625 -10 c0 -11 -7 -20 -15 -20 -15 0 -21 21 -8 33 12 13 23 7 23 -13z m40
-71 c0 -5 -4 -9 -10 -9 -5 0 -10 7 -10 16 0 8 5 12 10 9 6 -3 10 -10 10 -16z
m220 -10 c0 -12 -7 -19 -20 -19 -22 0 -29 35 -7 43 18 6 27 -2 27 -24z m-915
-14 c0 -16 -6 -30 -12 -32 -9 -3 -13 7 -13 32 0 25 4 35 13 33 6 -3 12 -17 12
-33z m623 -2 c2 -8 -6 -13 -22 -13 -25 0 -33 10 -19 24 10 10 36 3 41 -11z
m-558 -7 c0 -17 -27 -29 -35 -16 -4 6 -3 15 0 20 9 15 35 12 35 -4z m615 -44
c0 -20 -19 -18 -23 2 -3 12 1 17 10 14 7 -3 13 -10 13 -16z m343 -5 c2 -10 -3
-17 -12 -17 -18 0 -29 16 -21 31 9 14 29 6 33 -14z m-1363 3 c3 -6 -1 -13 -9
-16 -28 -11 -17 -24 14 -17 26 5 30 3 30 -16 0 -13 -8 -23 -24 -27 -34 -8 -51
-74 -19 -74 15 0 15 -1 0 -18 -19 -20 -23 -52 -7 -52 6 0 10 7 10 15 0 10 10
15 28 15 26 -1 26 -1 7 -15 -11 -8 -27 -21 -36 -29 -12 -13 -18 -13 -30 -3
-11 9 -13 37 -11 130 3 107 5 117 22 117 10 0 22 -5 25 -10z m489 -5 c4 -10
-1 -15 -14 -15 -11 0 -20 7 -20 15 0 8 6 15 14 15 8 0 16 -7 20 -15z m386 -6
c0 -5 -17 -9 -37 -9 l-38 1 30 13 c31 14 45 12 45 -5z m385 1 c3 -5 -1 -10 -9
-10 -9 0 -16 5 -16 10 0 6 4 10 9 10 6 0 13 -4 16 -10z m-875 -30 c13 0 17 -5
13 -21 -8 -30 -57 -23 -61 10 -3 19 0 22 13 17 9 -3 25 -6 35 -6z m570 -14 c0
-8 -5 -18 -10 -21 -13 -8 -42 14 -34 26 9 15 44 10 44 -5z m410 -21 c0 -19 -4
-35 -10 -35 -5 0 -10 9 -10 19 0 15 -8 21 -32 23 -52 5 -47 28 6 28 46 0 46 0
46 -35z m-313 -20 c-7 -16 -37 -21 -37 -5 0 10 32 31 39 25 2 -2 1 -11 -2 -20z
m-207 -4 c0 -10 -22 -31 -32 -31 -9 0 -11 34 -2 43 7 7 34 -2 34 -12z m-813
-33 c-3 -8 -6 -5 -6 6 -1 11 2 17 5 13 3 -3 4 -12 1 -19z m1336 -29 c3 -13 1
-19 -6 -16 -15 5 -22 37 -9 37 5 0 12 -9 15 -21z m-6 -55 c8 -22 -15 -43 -27
-24 -5 8 -10 21 -10 28 0 17 30 15 37 -4z m-1194 -29 c-6 -17 -25 -15 -31 3
-2 7 5 12 17 12 14 0 19 -5 14 -15z m-120 -32 c4 -19 1 -32 -11 -40 -26 -21
-32 -15 -32 27 0 33 4 40 19 40 12 0 21 -9 24 -27z m1279 -3 c5 -34 3 -36 -18
-16 -7 8 -19 16 -26 18 -17 6 0 28 21 28 13 0 20 -9 23 -30z m-147 10 c3 -5
-1 -10 -9 -10 -8 0 -18 5 -21 10 -3 6 1 10 9 10 8 0 18 -4 21 -10z m-1002 -16
c3 -4 -1 -13 -9 -21 -17 -18 -29 -11 -21 12 7 16 19 20 30 9z m947 -25 c0 -11
-36 -30 -43 -23 -2 3 -3 13 0 23 3 13 11 17 24 14 10 -3 19 -9 19 -14z m-870
-5 c0 -9 -7 -14 -17 -12 -25 5 -28 28 -4 28 12 0 21 -6 21 -16z m1000 -4 c0
-5 -5 -10 -11 -10 -5 0 -7 5 -4 10 3 6 8 10 11 10 2 0 4 -4 4 -10z m-1170 -27
c2 -11 -28 -28 -36 -20 -9 8 16 40 26 32 4 -3 8 -8 10 -12z m120 2 c0 -8 -7
-15 -15 -15 -16 0 -20 12 -8 23 11 12 23 8 23 -8z m1110 -9 c0 -13 -50 -29
-60 -19 -7 7 43 42 52 37 4 -3 8 -11 8 -18z m-140 -16 c0 -5 -4 -10 -10 -10
-5 0 -10 5 -10 10 0 6 5 10 10 10 6 0 10 -4 10 -10z m-1010 -31 c0 -5 -4 -9
-10 -9 -5 0 -10 7 -10 16 0 8 5 12 10 9 6 -3 10 -10 10 -16z m-180 -12 c0 -9
-13 -14 -35 -15 -25 -1 -35 3 -35 13 0 10 11 15 35 15 23 0 35 -5 35 -13z
m1436 3 c8 0 14 -4 14 -10 0 -5 -13 -10 -30 -10 -21 0 -30 5 -30 16 0 11 5 14
16 10 9 -3 22 -6 30 -6z m-1245 -33 c-13 -13 -26 -3 -16 12 3 6 11 8 17 5 6
-4 6 -10 -1 -17z m993 2 c-3 -5 -10 -7 -15 -3 -5 3 -7 10 -3 15 3 5 10 7 15 3
5 -3 7 -10 3 -15z m-1294 -15 c0 -15 -55 -20 -64 -5 -8 12 -1 16 33 17 20 1
31 -4 31 -12z m1220 5 c0 -7 7 -17 16 -24 15 -10 15 -12 1 -18 -18 -7 -52 27
-42 42 8 14 25 14 25 0z m450 -9 c-12 -22 -30 -27 -30 -9 0 6 -9 9 -20 6 -10
-3 -24 1 -31 9 -10 12 -3 14 40 14 49 0 51 -1 41 -20z m-1300 -5 c0 -8 -9 -15
-19 -15 -11 0 -26 -9 -34 -21 -10 -13 -17 -17 -22 -9 -9 14 35 60 58 60 9 0
17 -7 17 -15z m1334 -16 c-3 -5 -10 -7 -15 -3 -5 3 -7 10 -3 15 3 5 10 7 15 3
5 -3 7 -10 3 -15z m-1814 -16 c0 -5 -4 -14 -9 -22 -8 -13 -12 -13 -26 -1 -15
12 -18 12 -26 -3 -6 -9 -16 -17 -23 -17 -8 0 -16 -7 -20 -15 -3 -8 -15 -15
-26 -15 -11 0 -20 7 -20 15 0 8 9 15 20 15 10 0 30 11 44 25 23 23 86 36 86
18z m1410 -3 c0 -5 -4 -10 -10 -10 -5 0 -10 5 -10 10 0 6 5 10 10 10 6 0 10
-4 10 -10z m480 -10 c0 -5 -9 -10 -20 -10 -11 0 -20 5 -20 10 0 6 9 10 20 10
11 0 20 -4 20 -10z m-1420 -44 c0 -8 -6 -16 -14 -19 -10 -4 -12 0 -9 14 6 22
23 26 23 5z m1475 -1 c0 -5 -10 -11 -22 -13 -16 -2 -23 2 -23 13 0 11 7 15 23
13 12 -2 22 -7 22 -13z m-585 -5 c0 -5 -9 -10 -20 -10 -11 0 -20 5 -20 10 0 6
9 10 20 10 11 0 20 -4 20 -10z m-6 -55 c-1 -18 -34 -18 -34 0 0 10 7 15 18 13
9 -2 17 -8 16 -13z m-874 -2 c-1 -13 -29 -47 -35 -42 -9 10 8 49 21 49 8 0 14
-3 14 -7z m-635 -33 c11 -17 -5 -32 -21 -19 -7 6 -11 15 -8 20 7 12 21 11 29
-1z m1463 -23 c2 -10 -3 -17 -11 -17 -16 0 -30 24 -19 34 10 10 27 1 30 -17z
m633 2 c-13 -11 -26 -17 -29 -14 -8 8 20 35 37 35 12 -1 11 -5 -8 -21z m-1431
-14 c0 -9 -9 -15 -21 -15 -18 0 -19 2 -9 15 7 8 16 15 21 15 5 0 9 -7 9 -15z
m-608 -17 c-2 -13 4 -18 23 -18 22 0 26 -4 23 -22 -4 -30 -30 -30 -43 0 -5 12
-18 25 -27 28 -27 8 -23 36 5 32 15 -2 21 -9 19 -20z m1363 -26 c6 -22 5 -23
-14 -13 -23 13 -23 13 -15 36 8 19 19 10 29 -23z m635 7 c0 -15 -4 -19 -16
-15 -9 3 -20 6 -25 6 -5 0 -9 7 -9 15 0 9 9 15 25 15 19 0 25 -5 25 -21z
m-1344 -10 c9 -16 -12 -33 -31 -25 -14 5 -15 9 -5 21 15 18 26 19 36 4z m1301
-33 c-6 -18 -57 -20 -57 -2 0 15 26 25 48 18 7 -2 11 -10 9 -16z m-1863 -27
c-8 -14 -34 -11 -34 4 0 8 3 17 7 20 9 9 34 -13 27 -24z m1241 10 c-4 -5 -13
-9 -22 -9 -13 0 -13 3 -3 15 13 15 35 11 25 -6z m-621 -36 c12 -29 -6 -28 -30
2 -13 17 -24 33 -24 38 0 12 48 -23 54 -40z m1184 15 c8 -8 9 -15 1 -25 -22
-26 -55 -10 -43 21 7 19 25 21 42 4z m-942 -23 c9 -14 25 -25 35 -25 10 0 21
-4 24 -10 3 -6 -4 -10 -18 -10 -21 0 -77 46 -77 63 0 16 21 5 36 -18z m84 -5
c0 -14 -14 -12 -28 2 -19 19 -14 30 8 18 11 -6 20 -15 20 -20z m-900 -1 c0
-13 8 -23 20 -26 13 -3 20 -12 18 -22 -5 -24 -33 -19 -36 6 -2 13 -8 20 -16
17 -16 -6 -40 21 -31 36 12 19 45 11 45 -11z m1160 11 c0 -5 -4 -10 -10 -10
-5 0 -10 5 -10 10 0 6 5 10 10 10 6 0 10 -4 10 -10z m-680 -20 c0 -5 -4 -10
-10 -10 -5 0 -10 5 -10 10 0 6 5 10 10 10 6 0 10 -4 10 -10z m290 -10 c8 -5
12 -12 9 -15 -8 -8 -39 5 -39 16 0 11 11 11 30 -1z m-160 -10 c0 -6 11 -8 25
-4 22 5 25 3 25 -20 0 -31 -9 -33 -44 -5 -26 21 -34 39 -16 39 6 0 10 -5 10
-10z m344 1 c3 -4 -1 -17 -9 -27 -10 -15 -16 -16 -26 -7 -6 6 -9 19 -6 27 7
17 32 22 41 7z m766 3 c0 -16 -53 -55 -62 -46 -16 16 10 52 37 52 14 0 25 -3
25 -6z m-1772 -22 c2 -7 -6 -12 -17 -12 -21 0 -27 11 -14 24 9 9 26 2 31 -12z
m1842 8 c8 -5 12 -12 9 -15 -8 -8 -39 5 -39 16 0 11 11 11 30 -1z m-1060 -10
c0 -5 -4 -10 -10 -10 -5 0 -10 5 -10 10 0 6 5 10 10 10 6 0 10 -4 10 -10z m88
-18 c4 -25 -13 -30 -22 -6 -9 25 -7 36 7 32 6 -3 13 -14 15 -26z m262 18 c0
-5 -4 -10 -10 -10 -5 0 -10 5 -10 10 0 6 5 10 10 10 6 0 10 -4 10 -10z m170
-10 c0 -5 -4 -10 -10 -10 -5 0 -10 5 -10 10 0 6 5 10 10 10 6 0 10 -4 10 -10z
m-350 -8 c0 -13 -12 -22 -22 -16 -10 6 -1 24 13 24 5 0 9 -4 9 -8z m-800 -10
c0 -5 -8 -16 -18 -25 -14 -13 -21 -14 -30 -5 -22 22 -18 26 41 37 4 0 7 -3 7
-7z m-105 -12 c3 -6 -2 -13 -12 -17 -10 -4 -21 -11 -25 -17 -13 -20 -19 2 -6
23 14 22 33 27 43 11z m1661 -1 c10 -17 -12 -32 -35 -24 -29 9 -27 35 3 35 14
0 28 -5 32 -11z m94 -3 c0 -8 -5 -18 -11 -22 -14 -8 -33 11 -25 25 10 16 36
13 36 -3z m-976 -4 c7 -12 -42 -38 -51 -28 -5 4 1 14 11 22 23 16 33 18 40 6z
m-254 -17 c0 -8 -4 -15 -9 -15 -5 0 -11 7 -15 15 -3 9 0 15 9 15 8 0 15 -7 15
-15z m350 11 c0 -11 -19 -15 -25 -6 -3 5 1 10 9 10 9 0 16 -2 16 -4z m100 -6
c0 -5 -7 -10 -15 -10 -8 0 -15 5 -15 10 0 6 7 10 15 10 8 0 15 -4 15 -10z
m-941 -24 c9 -10 9 -16 1 -21 -16 -10 -40 2 -40 20 0 19 24 20 39 1z m816 4
c4 -6 -7 -10 -24 -10 -17 0 -31 5 -31 10 0 6 11 10 24 10 14 0 28 -4 31 -10z
m60 0 c3 -5 -3 -10 -14 -10 -12 0 -21 5 -21 10 0 6 6 10 14 10 8 0 18 -4 21
-10z m716 -26 c12 -23 11 -27 -4 -35 -9 -6 -17 -15 -17 -22 -1 -23 -55 -76
-68 -68 -22 13 -1 76 26 76 30 1 34 8 22 39 -19 51 15 58 41 10z m-1505 15
c10 -17 -23 -46 -38 -31 -8 8 -8 15 2 27 15 18 26 19 36 4z m1579 1 c3 -5 -1
-10 -9 -10 -9 0 -16 5 -16 10 0 6 4 10 9 10 6 0 13 -4 16 -10z m-1146 -26 c-9
-11 -15 -12 -23 -4 -8 8 -7 13 4 20 20 12 33 1 19 -16z m631 16 c0 -5 -7 -10
-15 -10 -8 0 -15 5 -15 10 0 6 7 10 15 10 8 0 15 -4 15 -10z m64 -15 c-4 -8
-8 -15 -10 -15 -2 0 -4 7 -4 15 0 8 4 15 10 15 5 0 7 -7 4 -15z m-1264 -25 c0
-5 -2 -10 -4 -10 -3 0 -8 5 -11 10 -3 6 -1 10 4 10 6 0 11 -4 11 -10z m183
-27 l18 -31 -32 -16 c-44 -22 -58 -20 -65 9 -9 35 2 42 26 20 24 -22 39 -12
22 15 -7 11 -12 25 -12 31 0 19 24 3 43 -28z m-93 19 c0 -10 -22 -32 -32 -32
-4 0 -8 9 -8 20 0 13 7 20 20 20 11 0 20 -4 20 -8z m516 -19 c-8 -16 -17 -36
-20 -46 -9 -28 -24 -11 -19 20 8 47 12 53 33 53 20 0 20 -2 6 -27z m569 10
c-9 -23 -9 -33 0 -57 6 -14 4 -17 -6 -14 -8 3 -14 12 -14 21 0 9 -6 22 -13 29
-20 20 -14 38 14 38 21 0 25 -3 19 -17z m515 -19 c0 -16 -16 -19 -25 -4 -8 13
4 32 16 25 5 -4 9 -13 9 -21z m-1197 -26 c-5 -10 -43 -10 -43 -1 0 3 8 15 17
25 17 19 18 19 24 1 4 -10 5 -21 2 -25z m377 13 c0 -10 54 -7 81 4 10 3 20 1
24 -5 5 -8 10 -8 20 0 10 8 15 8 20 0 12 -20 -3 -23 -110 -25 -80 -2 -105 1
-105 11 0 7 12 15 28 17 15 2 30 5 35 6 4 0 7 -3 7 -8z m-840 -16 c0 -8 -4
-15 -10 -15 -5 0 -10 7 -10 15 0 8 5 15 10 15 6 0 10 -7 10 -15z m750 0 c0
-16 -9 -19 -34 -9 -25 9 -19 24 9 24 16 0 25 -6 25 -15z m518 3 c-6 -18 -28
-21 -28 -4 0 9 7 16 16 16 9 0 14 -5 12 -12z m-648 -19 c0 -11 5 -30 11 -42
10 -19 8 -19 -16 5 -17 16 -26 32 -22 42 9 23 27 20 27 -5z m483 6 c-4 -15
-26 -12 -31 3 -3 9 2 13 14 10 11 -2 18 -8 17 -13z m527 -6 c0 -5 -7 -9 -15
-9 -15 0 -20 12 -9 23 8 8 24 -1 24 -14z m-1130 -8 c0 -12 -20 -25 -27 -18 -7
7 6 27 18 27 5 0 9 -4 9 -9z m720 5 c0 -3 -4 -8 -10 -11 -5 -3 -10 -1 -10 4 0
6 5 11 10 11 6 0 10 -2 10 -4z m-1030 -26 c0 -16 -7 -20 -35 -20 -40 0 -50 26
-12 33 42 8 47 7 47 -13z m-123 -17 c-15 -15 -37 -11 -37 7 0 10 31 19 43 12
5 -2 2 -11 -6 -19z m1076 14 c-2 -4 -3 -12 -3 -18 0 -6 -9 -8 -22 -3 -31 9
-35 14 -19 23 15 10 47 8 44 -2z m376 0 c6 -8 8 -17 4 -20 -11 -12 -41 -7 -46
7 -10 27 22 36 42 13z m161 3 c0 -5 -9 -10 -21 -10 -11 0 -17 5 -14 10 3 6 13
10 21 10 8 0 14 -4 14 -10z m-1102 -16 c-9 -9 -21 -13 -27 -9 -16 10 -3 25 22
25 20 0 20 -1 5 -16z m662 -10 c0 -8 -4 -14 -10 -14 -5 0 -10 9 -10 21 0 11 5
17 10 14 6 -3 10 -13 10 -21z m360 5 c0 -5 -7 -9 -15 -9 -15 0 -20 12 -9 23 8
8 24 -1 24 -14z m-1140 -14 c0 -28 -15 -34 -24 -9 -10 25 -7 34 9 34 9 0 15
-9 15 -25z m-347 -10 c8 -18 -11 -31 -25 -17 -11 11 -3 32 12 32 4 0 10 -7 13
-15z m789 4 c29 1 38 -2 38 -14 0 -17 -2 -18 -95 -20 -63 -1 -84 6 -85 27 0 8
80 15 95 9 5 -3 26 -4 47 -2z m378 -4 c0 -8 -7 -15 -16 -15 -14 0 -14 3 -4 15
7 8 14 15 16 15 2 0 4 -7 4 -15z m-1272 -13 c2 -7 -3 -12 -12 -12 -9 0 -16 7
-16 16 0 17 22 14 28 -4z m210 -5 c2 -10 -3 -17 -12 -17 -10 0 -16 9 -16 21 0
24 23 21 28 -4z m520 11 c-3 -7 -8 -13 -13 -13 -5 0 -10 6 -12 13 -3 6 3 12
12 12 9 0 15 -6 13 -12z m242 -3 c0 -8 -4 -15 -10 -15 -5 0 -10 7 -10 15 0 8
5 15 10 15 6 0 10 -7 10 -15z m-366 -3 c9 -14 -12 -35 -28 -29 -23 9 -20 37 3
37 11 0 22 -4 25 -8z m471 -45 c0 -25 3 -49 8 -53 11 -12 8 -24 -7 -24 -15 0
-29 38 -30 85 -1 38 3 47 17 42 7 -2 12 -24 12 -50z m405 43 c18 -11 3 -43
-24 -48 -12 -3 -16 4 -16 27 0 32 13 39 40 21z m60 -10 c0 -5 -2 -10 -4 -10
-3 0 -8 5 -11 10 -3 6 -1 10 4 10 6 0 11 -4 11 -10z m-1480 -31 c0 -5 -7 -9
-15 -9 -15 0 -20 12 -9 23 8 8 24 -1 24 -14z m108 9 c-3 -7 -13 -13 -23 -13
-10 0 -20 6 -22 13 -3 7 5 12 22 12 17 0 25 -5 23 -12z m336 3 c8 -12 -20 -22
-39 -15 -19 8 -9 24 15 24 10 0 21 -4 24 -9z m732 -18 c-10 -10 -19 5 -10 18
6 11 8 11 12 0 2 -7 1 -15 -2 -18z m-805 -4 c11 -11 18 -23 15 -26 -7 -7 -46
26 -46 39 0 13 8 10 31 -13z m196 5 c5 -14 -24 -50 -32 -42 -11 11 4 60 17 56
7 -3 13 -9 15 -14z m1033 6 c0 -5 -4 -10 -10 -10 -5 0 -10 5 -10 10 0 6 5 10
10 10 6 0 10 -4 10 -10z m-1430 -30 c0 -25 -4 -30 -24 -30 -35 0 -43 20 -16
42 31 25 40 23 40 -12z m1307 -6 c-6 -6 -47 9 -47 17 0 5 11 3 25 -3 14 -6 24
-13 22 -14z m-1439 -2 c2 -7 -5 -12 -17 -12 -14 0 -19 5 -14 15 6 17 25 15 31
-3z m1111 -3 c-7 -14 -14 -18 -21 -11 -13 13 -2 32 18 32 12 0 13 -4 3 -21z
m-699 -2 c0 -17 -38 -53 -46 -44 -8 8 23 57 36 57 6 0 10 -6 10 -13z m770 3
c0 -5 -4 -10 -10 -10 -5 0 -10 5 -10 10 0 6 5 10 10 10 6 0 10 -4 10 -10z
m178 -17 c4 -29 -23 -31 -38 -4 -15 28 -13 33 13 29 14 -2 23 -11 25 -25z
m-663 7 c4 -6 12 -7 18 -3 7 4 36 8 65 9 38 1 52 -2 52 -12 0 -8 -4 -14 -10
-15 -21 -1 -120 0 -127 1 -5 1 -19 3 -32 3 -13 1 -26 8 -28 15 -6 15 53 17 62
2z m-378 -15 c9 -25 -2 -27 -22 -5 -17 18 -17 20 -1 20 9 0 19 -7 23 -15z
m1208 5 c3 -5 -1 -10 -9 -10 -9 0 -16 5 -16 10 0 6 4 10 9 10 6 0 13 -4 16
-10z m-1457 -27 c2 -17 -2 -19 -26 -15 -23 3 -29 8 -25 23 7 25 47 19 51 -8z
m92 7 c0 -11 5 -20 10 -20 6 0 10 -4 10 -10 0 -5 -8 -10 -19 -10 -18 0 -36 42
-23 55 11 11 22 4 22 -15z m910 5 c0 -8 -4 -15 -10 -15 -5 0 -10 7 -10 15 0 8
5 15 10 15 6 0 10 -7 10 -15z m90 -10 c0 -8 -5 -17 -11 -21 -16 -9 -30 18 -17
33 12 15 28 8 28 -12z m-1250 8 c-1 -5 -9 -18 -20 -31 -17 -20 -25 -22 -65
-17 -31 5 -50 3 -61 -5 -22 -19 -45 4 -24 24 20 18 67 29 75 16 10 -16 65 -12
71 5 6 15 24 21 24 8z m658 -21 c4 -26 -6 -28 -24 -4 -18 24 -17 34 4 30 9 -2
18 -13 20 -26z m-118 2 c0 -8 -5 -12 -10 -9 -6 4 -8 11 -5 16 9 14 15 11 15
-7z m496 -22 c0 -34 -19 -44 -30 -16 -12 31 -7 56 12 52 12 -2 17 -13 18 -36z
m464 29 c0 -6 -4 -13 -10 -16 -5 -3 -10 1 -10 9 0 9 5 16 10 16 6 0 10 -4 10
-9z m70 -7 c0 -17 -22 -14 -28 4 -2 7 3 12 12 12 9 0 16 -7 16 -16z m-150 -3
c0 -20 -13 -41 -24 -41 -18 0 -35 21 -29 36 6 15 53 20 53 5z m-1380 -18 c-1
-16 -50 -64 -60 -58 -18 11 -11 30 18 47 30 19 42 22 42 11z m180 -32 c0 -8
-6 -11 -16 -7 -9 3 -20 6 -25 6 -5 0 -9 9 -9 19 0 17 3 18 25 8 14 -7 25 -18
25 -26z m180 29 c0 -5 -4 -10 -10 -10 -5 0 -10 5 -10 10 0 6 5 10 10 10 6 0
10 -4 10 -10z m120 -10 c0 -5 -5 -12 -11 -16 -14 -8 -33 11 -25 25 7 11 36 4
36 -9z m690 9 c0 -6 -9 -22 -20 -36 -19 -24 -20 -24 -20 -5 0 11 3 27 6 36 7
18 34 22 34 5z m75 1 c-3 -5 -11 -10 -16 -10 -6 0 -7 5 -4 10 3 6 11 10 16 10
6 0 7 -4 4 -10z m-647 -12 c16 -16 15 -28 -3 -28 -8 0 -15 2 -15 4 0 2 -3 11
-6 20 -7 19 7 21 24 4z m-823 -18 c10 -11 15 -23 11 -28 -4 -4 -14 1 -21 11
-10 14 -19 17 -37 11 -13 -4 -27 -7 -33 -5 -5 1 -15 -6 -22 -15 -12 -17 -14
-17 -29 4 -18 26 -34 20 -34 -12 0 -21 -6 -24 -62 -29 -69 -6 -92 4 -66 29 13
13 19 14 36 3 17 -10 23 -10 36 0 9 8 16 19 16 27 0 10 23 14 88 17 48 1 90 4
93 5 3 1 14 -7 24 -18z m1705 10 c0 -5 -2 -10 -4 -10 -3 0 -8 5 -11 10 -3 6
-1 10 4 10 6 0 11 -4 11 -10z m350 1 c0 -5 -7 -11 -15 -15 -9 -3 -15 0 -15 9
0 8 7 15 15 15 8 0 15 -4 15 -9z m-1593 -36 c-3 -19 -2 -35 2 -35 4 0 13 -16
21 -35 8 -19 20 -35 27 -35 7 0 13 -9 13 -19 0 -11 3 -26 6 -35 4 -11 -2 -19
-22 -26 -35 -14 -50 0 -32 29 10 17 10 24 0 39 -7 9 -15 25 -18 35 -4 9 -9 17
-13 17 -3 0 -12 14 -19 30 -13 28 -12 32 10 50 31 26 31 25 25 -15z m538 25
c4 -7 12 -7 18 -2 22 16 77 14 77 -3 0 -12 -14 -15 -80 -14 -61 1 -80 4 -80
15 0 17 55 19 65 4z m176 -13 c-13 -13 -26 -3 -16 12 3 6 11 8 17 5 6 -4 6
-10 -1 -17z m734 13 c3 -5 2 -10 -4 -10 -5 0 -13 5 -16 10 -3 6 -2 10 4 10 5
0 13 -4 16 -10z m-1809 -11 c3 -6 1 -16 -5 -22 -9 -9 -14 -8 -21 3 -9 15 -4
30 10 30 5 0 12 -5 16 -11z m147 -18 c3 -14 -3 -25 -19 -36 -13 -8 -26 -15
-29 -15 -11 0 -4 36 11 58 17 25 29 22 37 -7z m86 12 c0 -5 -3 -9 -9 -11 -5
-2 -10 4 -10 13 0 16 16 14 19 -2z m404 -35 c-7 -13 -21 -9 -27 8 -4 9 -1 23
6 32 11 13 13 11 19 -9 3 -13 4 -27 2 -31z m1527 42 c0 -5 -7 -10 -15 -10 -8
0 -15 5 -15 10 0 6 7 10 15 10 8 0 15 -4 15 -10z m-1601 -26 c3 -16 1 -17 -13
-5 -19 16 -21 34 -3 29 6 -3 14 -13 16 -24z m206 -4 c-5 -8 -11 -8 -17 -2 -6
6 -7 16 -3 22 5 8 11 8 17 2 6 -6 7 -16 3 -22z m440 10 c7 -21 0 -40 -16 -40
-5 0 -9 14 -9 30 0 34 15 40 25 10z m130 10 c-3 -5 -11 -10 -16 -10 -6 0 -7 5
-4 10 3 6 11 10 16 10 6 0 7 -4 4 -10z m140 -31 c4 -17 5 -32 2 -35 -8 -9 -38
48 -33 62 8 22 23 9 31 -27z m580 20 c-8 -12 -35 -12 -35 0 0 11 22 20 33 14
4 -2 5 -9 2 -14z m-937 -6 c5 -18 -28 -29 -38 -12 -5 7 -6 17 -3 22 7 12 35 5
41 -10z m452 -3 c0 -13 -5 -18 -15 -14 -16 7 -19 17 -8 27 12 13 23 7 23 -13z
m-1510 -22 c17 -12 30 -30 30 -40 0 -12 7 -18 21 -18 25 0 23 -37 -3 -54 -24
-15 -47 7 -29 28 10 12 7 17 -18 30 -29 16 -31 15 -46 -8 l-16 -25 -40 40
c-21 21 -39 44 -39 49 0 18 29 10 45 -12 l16 -23 20 28 c12 15 23 27 25 27 3
0 18 -10 34 -22z m664 16 c9 -3 16 -12 16 -20 0 -7 7 -17 17 -22 10 -6 14 -16
10 -26 -8 -21 -27 -12 -27 12 0 10 -9 23 -20 30 -11 7 -20 17 -20 22 0 12 3
12 24 4z m1406 -9 c0 -17 -2 -18 -24 -9 -23 9 -20 24 4 24 11 0 20 -7 20 -15z
m89 -19 c23 -36 27 -56 11 -56 -5 0 -10 6 -10 14 0 8 -12 23 -27 34 -15 11
-23 24 -19 30 12 19 23 14 45 -22z m261 24 c0 -5 -4 -10 -10 -10 -5 0 -10 5
-10 10 0 6 5 10 10 10 6 0 10 -4 10 -10z m-3012 -22 c-4 -27 -23 -34 -32 -13
-8 21 1 35 20 35 10 0 14 -8 12 -22z m110 5 c-2 -12 -14 -19 -36 -21 -38 -4
-42 -19 -8 -32 27 -10 50 -45 41 -60 -11 -18 -45 -11 -45 9 0 11 -9 26 -20 34
-15 11 -18 21 -13 50 5 35 7 37 45 37 32 0 39 -3 36 -17z m692 2 c0 -8 -4 -15
-10 -15 -5 0 -10 7 -10 15 0 8 5 15 10 15 6 0 10 -7 10 -15z m2018 3 c-3 -7
-11 -13 -18 -13 -7 0 -15 6 -17 13 -3 7 4 12 17 12 13 0 20 -5 18 -12z m-2885
-18 c-3 -11 -1 -20 4 -20 5 0 19 -10 32 -21 16 -15 20 -24 12 -32 -8 -8 -19
-3 -39 16 -15 15 -36 27 -45 27 -9 0 -17 4 -17 9 0 24 14 41 35 41 18 0 22 -4
18 -20z m431 7 c-3 -8 3 -20 12 -28 14 -11 18 -11 29 5 11 14 17 15 34 6 29
-15 12 -49 -22 -43 -14 3 -29 -2 -37 -11 -11 -15 -15 -15 -29 -1 -15 13 -20
13 -40 -1 -28 -20 -12 -43 27 -37 l27 4 -27 -16 c-16 -9 -28 -20 -28 -25 0
-20 -21 -9 -30 15 -5 14 -16 25 -24 25 -8 0 -22 8 -32 17 -15 16 -17 16 -31
-3 -7 -10 -18 -20 -23 -20 -6 -1 -14 -2 -19 -3 -5 0 -14 -14 -20 -31 -5 -16
-15 -30 -20 -30 -17 0 -12 22 14 65 24 39 24 40 4 50 -18 10 -18 13 -6 24 12
9 18 9 30 -4 19 -18 41 -19 66 -3 15 9 24 8 46 -6 25 -17 29 -17 37 -2 5 9 16
16 23 16 9 0 15 10 15 25 0 15 6 25 15 25 8 0 12 -6 9 -13z m1246 -17 c0 -20
-5 -30 -15 -30 -10 0 -15 10 -15 30 0 20 5 30 15 30 10 0 15 -10 15 -30z
m1373 8 c4 -12 4 -24 2 -26 -7 -8 -35 20 -35 34 0 23 27 16 33 -8z m-2689 -3
c3 -9 0 -15 -8 -15 -8 0 -16 7 -20 15 -3 9 0 15 8 15 8 0 16 -7 20 -15z m406
-5 c0 -10 -31 -23 -38 -15 -8 7 19 35 29 29 5 -3 9 -9 9 -14z m1286 -13 c3
-20 -18 -32 -41 -23 -13 5 -13 9 -3 26 15 24 40 22 44 -3z m644 -8 c0 -5 -13
-15 -30 -24 -34 -18 -39 -7 -14 31 13 19 20 22 30 13 8 -6 14 -15 14 -20z m56
-16 c-2 -3 -9 -2 -15 2 -8 4 -7 13 1 28 l13 22 3 -23 c2 -13 1 -26 -2 -29z
m157 17 c-4 -14 0 -20 11 -20 24 0 19 -26 -9 -44 -19 -13 -30 -14 -45 -6 -24
13 -26 35 -5 44 8 3 15 11 15 19 0 16 21 38 31 32 4 -3 5 -14 2 -25z m-1783
-6 c0 -25 -15 -40 -25 -24 -3 5 -15 10 -25 10 -20 0 -34 15 -26 28 2 4 21 8
40 9 31 1 36 -2 36 -23z m364 17 c5 -1 3 -8 -4 -16 -18 -22 -50 -19 -50 5 0
15 5 19 23 16 12 -3 26 -5 31 -5z m94 -14 c3 -12 -4 -15 -32 -14 -60 4 -64 33
-4 31 22 -1 34 -6 36 -17z m370 0 c3 -12 -4 -17 -22 -17 -27 0 -41 14 -31 30
9 15 50 5 53 -13z m444 1 c-7 -7 -12 -8 -12 -2 0 14 12 26 19 19 2 -3 -1 -11
-7 -17z m602 16 c19 -7 22 -44 3 -44 -17 0 -37 20 -37 37 0 14 10 16 34 7z
m-1116 -55 c-1 -21 -5 -28 -14 -25 -8 3 -26 -6 -40 -19 -32 -29 -49 -31 -63
-8 -8 15 -11 15 -27 3 -16 -14 -17 -13 -11 10 4 14 7 31 7 38 0 19 28 14 40
-8 13 -24 30 -26 30 -5 0 8 6 15 13 15 8 0 19 12 26 26 9 21 14 24 26 14 7 -6
13 -25 13 -41z m-982 26 c4 -8 12 -15 20 -15 16 0 19 -26 4 -35 -6 -3 -14 5
-20 19 -5 14 -17 26 -25 26 -9 0 -13 5 -10 10 9 15 25 12 31 -5z m-116 -20 c0
-7 -7 -15 -15 -19 -8 -3 -15 -12 -15 -21 0 -8 7 -15 15 -15 18 0 20 -21 3 -38
-15 -15 -28 -15 -28 0 0 6 -7 20 -16 29 -15 17 -15 21 12 52 29 34 44 38 44
12z m462 -42 c7 2 12 16 10 31 -3 32 15 35 27 4 8 -24 -2 -61 -25 -86 -9 -11
-17 -7 -39 22 -22 29 -32 35 -51 30 -21 -5 -24 -3 -24 21 0 20 4 25 18 21 9
-3 24 -1 32 4 11 7 17 1 27 -21 7 -17 18 -29 25 -26z m1278 42 c0 -8 -4 -15
-10 -15 -5 0 -10 7 -10 15 0 8 5 15 10 15 6 0 10 -7 10 -15z m205 -25 c-8 -13
-32 -13 -40 -1 -3 5 2 17 12 26 15 15 17 15 25 1 5 -9 6 -21 3 -26z m-521 15
c11 -8 17 -17 14 -21 -8 -8 -48 14 -48 26 0 14 12 12 34 -5z m66 5 c0 -5 -2
-10 -4 -10 -3 0 -8 5 -11 10 -3 6 -1 10 4 10 6 0 11 -4 11 -10z m90 -5 c0 -8
-4 -15 -9 -15 -13 0 -22 16 -14 24 11 11 23 6 23 -9z m437 -5 c3 -11 12 -20
19 -20 8 0 14 -7 14 -15 0 -8 -4 -15 -10 -15 -5 0 -10 5 -10 10 0 6 -11 15
-25 20 -14 5 -25 16 -25 25 0 22 31 18 37 -5z m173 -5 c0 -8 -4 -17 -10 -20
-6 -4 -10 5 -10 20 0 15 4 24 10 20 6 -3 10 -12 10 -20z m-2140 6 c0 -13 -26
-32 -33 -24 -14 13 -6 33 13 33 11 0 20 -4 20 -9z m1195 -2 c4 -6 4 -27 0 -47
l-7 -37 -14 25 c-18 33 -18 70 0 70 8 0 18 -5 21 -11z m-1465 -14 c0 -9 -9
-15 -25 -15 -29 0 -34 16 -7 23 30 8 32 7 32 -8z m86 -5 c46 -46 53 -60 31
-60 -8 0 -19 11 -25 25 -7 14 -19 28 -27 31 -16 6 -21 24 -7 24 5 0 17 -9 28
-20z m1924 5 c0 -8 -7 -15 -15 -15 -16 0 -20 12 -8 23 11 12 23 8 23 -8z
m-2485 -21 c28 -30 32 -44 13 -44 -19 0 -61 48 -53 60 9 15 13 13 40 -16z
m2575 17 c0 -12 -20 -25 -27 -18 -7 7 6 27 18 27 5 0 9 -4 9 -9z m-2185 -14
c19 -15 13 -37 -9 -37 -18 0 -39 27 -31 40 8 13 17 13 40 -3z m1853 -4 c-5
-25 -28 -28 -28 -4 0 12 6 21 16 21 9 0 14 -7 12 -17z m67 8 c3 -5 1 -12 -5
-16 -5 -3 -10 1 -10 9 0 18 6 21 15 7z m-2129 -28 c-10 -10 -19 5 -10 18 6 11
8 11 12 0 2 -7 1 -15 -2 -18z m330 -11 c-12 -13 -18 -13 -30 -2 -9 7 -16 16
-16 20 0 13 34 17 48 7 11 -8 10 -13 -2 -25z m780 13 c-32 -30 -36 -31 -36 -6
0 18 15 27 49 30 8 0 2 -10 -13 -24z m170 1 c5 -11 15 -22 23 -24 10 -4 12 2
7 22 -6 25 -5 27 16 20 13 -3 26 -12 30 -18 11 -16 10 -56 -2 -56 -5 0 -10 5
-10 10 0 6 -7 10 -15 10 -8 0 -15 -7 -15 -16 0 -8 7 -22 15 -30 20 -20 19 -33
-2 -41 -10 -4 -23 -14 -29 -22 -9 -12 -15 -13 -26 -3 -12 9 -23 9 -48 1 -28
-10 -34 -9 -42 5 -5 9 -21 16 -35 16 -22 0 -25 4 -21 24 3 15 0 27 -8 30 -20
8 -18 46 2 46 9 0 18 9 21 19 9 34 125 39 139 7z m114 14 c0 -5 -7 -10 -16
-10 -8 0 -12 5 -9 10 3 6 10 10 16 10 5 0 9 -4 9 -10z m520 -4 c0 -8 -4 -17
-8 -20 -13 -8 -35 11 -28 23 10 16 36 14 36 -3z m580 1 c0 -8 -3 -17 -7 -20
-9 -9 -34 13 -27 24 8 14 34 11 34 -4z m154 7 c9 -3 16 -15 16 -26 0 -28 -34
-19 -38 10 -4 24 -2 25 22 16z m-636 -27 c4 -19 -6 -21 -27 -8 -16 10 -5 34
12 28 7 -2 13 -11 15 -20z m-1408 -2 c0 -8 -4 -15 -10 -15 -5 0 -10 7 -10 15
0 8 5 15 10 15 6 0 10 -7 10 -15z m1668 -3 c2 -7 -3 -12 -12 -12 -9 0 -16 7
-16 16 0 17 22 14 28 -4z m80 6 c-7 -19 -38 -22 -38 -4 0 10 9 16 21 16 12 0
19 -5 17 -12z m65 6 c8 -8 -3 -34 -14 -34 -5 0 -9 9 -9 20 0 19 11 26 23 14z
m-313 -24 c0 -11 -4 -20 -9 -20 -14 0 -23 18 -16 30 10 17 25 11 25 -10z
m-2059 -1 c11 -5 17 -14 14 -20 -7 -11 -45 7 -45 21 0 13 7 13 31 -1z m127
-12 c4 -20 -6 -21 -45 -6 -26 10 -27 12 -8 20 29 11 49 6 53 -14z m97 3 c0
-22 -29 -18 -33 3 -3 14 1 18 15 15 10 -2 18 -10 18 -18z m486 8 c1 -7 1 -21
0 -30 -2 -12 5 -18 18 -18 12 0 21 -7 21 -16 0 -11 -8 -14 -27 -12 -22 2 -29
10 -34 38 -4 19 -5 38 -3 42 8 12 24 9 25 -4z m967 -25 c-4 -44 -23 -55 -31
-17 -6 35 1 54 20 54 10 0 13 -10 11 -37z m-1758 12 c-7 -8 -16 -15 -21 -15
-5 0 -9 7 -9 15 0 9 9 15 21 15 18 0 19 -2 9 -15z m410 5 c13 -9 13 -11 0 -19
-16 -11 -43 5 -34 20 7 11 15 11 34 -1z m83 -5 c8 -18 -11 -31 -25 -17 -11 11
-3 32 12 32 4 0 10 -7 13 -15z m487 0 c0 -8 -4 -15 -10 -15 -5 0 -10 7 -10 15
0 8 5 15 10 15 6 0 10 -7 10 -15z m90 -5 c0 -11 -7 -20 -15 -20 -15 0 -21 21
-8 33 12 13 23 7 23 -13z m1500 4 c0 -8 -4 -12 -10 -9 -5 3 -10 10 -10 16 0 5
5 9 10 9 6 0 10 -7 10 -16z m87 1 c3 -9 3 -19 -1 -22 -7 -7 -36 16 -36 28 0
15 30 10 37 -6z m-2707 -65 c0 -6 -13 -10 -29 -10 -24 0 -29 5 -33 28 -7 51 3
58 33 24 16 -18 29 -37 29 -42z m640 60 c0 -5 -7 -10 -16 -10 -8 0 -12 5 -9
10 3 6 10 10 16 10 5 0 9 -4 9 -10z m928 -7 c2 -8 -6 -13 -22 -13 -17 0 -26 5
-26 16 0 19 41 16 48 -3z m112 13 c0 -11 -19 -15 -25 -6 -3 5 1 10 9 10 9 0
16 -2 16 -4z m710 -5 c0 -6 -4 -13 -10 -16 -5 -3 -10 1 -10 9 0 9 5 16 10 16
6 0 10 -4 10 -9z m150 5 c0 -3 -4 -8 -10 -11 -5 -3 -10 -1 -10 4 0 6 5 11 10
11 6 0 10 -2 10 -4z m-79 -29 c-13 -13 -26 -3 -16 12 3 6 11 8 17 5 6 -4 6
-10 -1 -17z m-2261 -6 c12 -23 13 -31 3 -31 -17 1 -45 29 -38 39 10 17 23 13
35 -8z m-110 -21 c0 -20 -5 -30 -15 -30 -16 0 -19 17 -9 44 10 26 24 18 24
-14z m225 20 c4 -6 -5 -10 -20 -10 -15 0 -24 4 -20 10 3 6 12 10 20 10 8 0 17
-4 20 -10z m102 -12 c36 -25 42 -43 16 -52 -17 -7 -62 37 -63 62 0 17 9 15 47
-10z m1943 12 c0 -11 -40 -34 -47 -26 -3 3 -3 12 0 21 7 16 47 21 47 5z
m-1594 -39 c-13 -20 -26 -11 -26 16 0 25 1 26 16 11 9 -9 13 -21 10 -27z
m1404 4 c-7 -8 -16 -15 -21 -15 -14 0 -10 17 8 36 20 20 32 1 13 -21z m-1670
16 c0 -6 -4 -13 -10 -16 -5 -3 -10 1 -10 9 0 9 5 16 10 16 6 0 10 -4 10 -9z
m490 2 c0 -5 -4 -15 -10 -23 -11 -18 -25 -7 -17 15 6 15 27 21 27 8z m1430
-13 c0 -11 -4 -20 -9 -20 -13 0 -32 26 -24 33 13 14 33 6 33 -13z m95 10 c3
-6 -1 -13 -10 -16 -19 -8 -30 0 -20 15 8 14 22 14 30 1z m155 0 c12 -7 12 -12
3 -21 -9 -9 -16 -9 -27 1 -26 21 -5 39 24 20z m-2810 -25 c0 -15 -6 -25 -14
-25 -19 0 -28 14 -20 34 10 25 34 19 34 -9z m288 -12 c-6 -7 -17 -13 -24 -13
-8 0 -14 -9 -14 -20 0 -11 -7 -20 -15 -20 -24 0 -18 21 17 57 22 23 34 29 39
21 4 -7 3 -18 -3 -25z m106 12 c-13 -20 -19 -23 -30 -14 -12 10 -11 14 3 25
31 23 46 17 27 -11z m96 11 c0 -7 7 -19 15 -26 23 -19 18 -30 -16 -30 -28 0
-31 3 -25 23 3 12 6 28 6 35 0 6 5 12 10 12 6 0 10 -6 10 -14z m357 -12 c13
-28 -1 -41 -37 -31 -13 3 -24 -3 -36 -20 -12 -19 -18 -22 -24 -13 -5 7 -6 19
-3 26 9 24 -17 24 -29 0 -9 -20 -18 -26 -45 -26 -27 0 -33 -4 -33 -20 0 -23
-26 -38 -40 -24 -5 5 -11 21 -12 34 -3 22 1 25 23 22 17 -2 29 3 32 12 4 9 18
16 31 16 14 0 29 8 35 17 8 15 14 16 40 6 36 -13 71 -7 71 13 0 22 14 16 27
-12z m1563 16 c8 -5 12 -12 9 -15 -8 -8 -39 5 -39 16 0 11 11 11 30 -1z m-500
-15 c14 -17 4 -58 -13 -52 -14 4 -22 67 -9 67 5 0 15 -7 22 -15z m120 0 c0 -8
-4 -15 -10 -15 -5 0 -10 7 -10 15 0 8 5 15 10 15 6 0 10 -7 10 -15z m-1842
-28 c2 -12 -3 -17 -17 -17 -15 0 -21 6 -21 21 0 25 33 22 38 -4z m862 8 c0 -8
-9 -15 -20 -15 -20 0 -26 11 -13 23 12 13 33 7 33 -8z m1448 3 c-3 -7 -13 -15
-24 -17 -16 -3 -17 -1 -5 13 16 19 34 21 29 4z m110 -6 c2 -7 -6 -12 -17 -12
-21 0 -27 11 -14 24 9 9 26 2 31 -12z m-2268 -23 c0 -5 -9 -9 -20 -9 -19 0
-27 20 -13 33 7 8 33 -11 33 -24z m590 24 c0 -5 -5 -15 -10 -23 -8 -12 -10
-11 -10 8 0 12 5 22 10 22 6 0 10 -3 10 -7z m1198 -11 c2 -7 -7 -12 -22 -12
-27 0 -35 15 -13 23 17 7 30 3 35 -11z m91 9 c21 -13 4 -31 -30 -31 -31 0 -36
9 -17 28 14 14 28 15 47 3z m470 -8 c0 -5 -3 -9 -9 -11 -5 -2 -10 4 -10 13 0
16 16 14 19 -2z m73 -15 c-9 -9 -15 -9 -24 0 -10 10 -10 15 2 22 20 12 38 -6
22 -22z m-2333 7 c3 -12 -13 -9 -17 4 -2 7 0 11 6 7 5 -3 10 -8 11 -11z m1991
5 c0 -13 -28 -25 -38 -16 -3 4 0 11 8 16 20 13 30 12 30 0z m-102 -26 c2 -1 0
-13 -4 -28 -7 -31 -24 -34 -31 -6 -3 10 -14 22 -24 25 -19 6 -24 17 -13 27 4
5 51 -7 72 -18z m-2268 8 c0 -5 -15 -15 -32 -23 -39 -16 -48 -44 -18 -52 24
-6 26 -29 5 -47 -8 -7 -15 -19 -15 -26 0 -16 -26 -19 -35 -4 -4 6 -16 10 -28
8 -17 -2 -23 3 -24 22 -3 26 18 55 75 103 32 26 72 36 72 19z m2600 -13 c0 -6
-4 -7 -10 -4 -5 3 -10 11 -10 16 0 6 5 7 10 4 6 -3 10 -11 10 -16z m-2704 -5
c-3 -9 -6 -18 -6 -20 0 -2 -7 -4 -15 -4 -18 0 -19 12 -3 28 17 17 31 15 24 -4z
m1116 -24 c-2 -7 3 -17 10 -21 9 -6 8 -13 -7 -29 -16 -18 -17 -23 -5 -30 12
-8 10 -10 -8 -10 -21 0 -23 4 -20 43 2 32 -1 42 -12 42 -8 0 -16 10 -18 23 -3
22 -2 22 30 9 18 -8 32 -20 30 -27z m-773 4 c14 -30 11 -37 -13 -28 -16 6 -23
54 -8 54 5 0 14 -12 21 -26z m104 11 c7 -17 -8 -29 -25 -19 -7 4 -8 3 -4 -4 5
-8 0 -12 -13 -12 -27 0 -27 15 1 34 28 20 34 20 41 1z m166 6 c8 -5 11 -16 6
-30 -7 -23 -20 -27 -30 -10 -5 6 -19 -1 -37 -20 -17 -17 -34 -31 -38 -31 -4 0
-10 -9 -13 -19 -6 -24 -37 -19 -55 10 -11 17 -9 19 19 19 26 0 29 3 24 20 -5
17 -2 20 20 20 34 0 65 17 65 35 0 17 18 19 39 6z m922 -71 c-1 -56 -6 -78
-18 -87 -9 -7 -20 -13 -25 -13 -14 0 -8 30 7 36 20 8 19 34 0 34 -24 0 -29 29
-9 51 18 20 18 21 1 34 -26 19 -21 27 15 23 l31 -3 -2 -75z m407 56 c3 -12 -1
-17 -10 -14 -7 3 -15 13 -16 22 -3 12 1 17 10 14 7 -3 15 -13 16 -22z m672 16
c0 -5 -11 -14 -25 -20 -20 -9 -25 -9 -25 2 0 7 3 16 7 19 9 10 43 9 43 -1z
m162 -22 c-3 -30 -10 -36 -23 -23 -14 14 -1 56 14 50 7 -2 11 -15 9 -27z m216
12 c2 -7 -4 -15 -13 -18 -20 -8 -27 -1 -19 20 7 18 25 17 32 -2z m57 8 c3 -5
2 -10 -4 -10 -5 0 -13 5 -16 10 -3 6 -2 10 4 10 5 0 13 -4 16 -10z m-2938 -47
c-3 -3 -13 -3 -21 -1 -15 3 -15 6 1 28 l18 25 3 -23 c2 -13 1 -26 -1 -29z
m157 31 c8 -20 -1 -34 -20 -34 -15 0 -17 9 -8 34 8 20 20 20 28 0z m651 6 c-3
-5 -10 -10 -16 -10 -5 0 -9 5 -9 10 0 6 7 10 16 10 8 0 12 -4 9 -10z m1490
-10 c0 -7 -6 -15 -12 -17 -8 -3 -13 4 -13 17 0 13 5 20 13 18 6 -3 12 -11 12
-18z m-485 -41 c0 -32 -34 -20 -38 14 -3 26 -2 28 17 17 12 -6 21 -20 21 -31z
m570 19 c0 -13 -8 -18 -30 -18 -22 0 -30 5 -30 18 0 14 8 19 30 19 22 0 30 -5
30 -19z m530 -22 c-14 -14 -24 0 -16 21 6 15 8 15 16 3 6 -9 5 -19 0 -24z
m-74 -24 c-4 -3 -11 -1 -18 6 -8 8 -8 15 3 28 13 16 14 16 17 -5 2 -13 1 -25
-2 -29z m-770 10 c-8 -9 -19 -13 -22 -9 -10 9 16 38 28 31 6 -4 4 -13 -6 -22z
m364 12 c11 -12 10 -18 -3 -31 -8 -9 -23 -13 -31 -10 -19 8 -21 43 -3 50 20 9
24 8 37 -9z m188 -8 c2 -10 -1 -23 -6 -28 -12 -12 -36 27 -27 43 10 15 29 5
33 -15z m-2571 -3 c4 -11 -26 -27 -35 -19 -2 3 -2 12 2 21 6 18 27 16 33 -2z
m153 -8 c0 -18 -17 -28 -36 -21 -11 4 -12 10 -4 25 11 22 40 18 40 -4z m553
10 c-4 -15 -26 -12 -31 3 -3 9 2 13 14 10 11 -2 18 -8 17 -13z m87 0 c-7 -8
-19 -15 -26 -15 -8 0 -14 7 -14 15 0 10 10 15 26 15 22 0 25 -2 14 -15z m2130
-5 c0 -5 -4 -10 -10 -10 -5 0 -10 5 -10 10 0 6 5 10 10 10 6 0 10 -4 10 -10z
m-2700 -21 c0 -6 -4 -7 -10 -4 -5 3 -10 11 -10 16 0 6 5 7 10 4 6 -3 10 -11
10 -16z m2195 11 c-3 -5 3 -15 15 -22 27 -17 25 -28 -5 -28 -21 0 -25 5 -25
30 0 17 5 30 11 30 5 0 7 -4 4 -10z m-1604 -46 c-15 -34 -23 -26 -15 15 5 22
10 29 17 22 7 -7 7 -19 -2 -37z m1167 34 c16 -16 15 -28 -3 -28 -8 0 -15 2
-15 4 0 2 -3 11 -6 20 -7 19 7 21 24 4z m98 -4 c-3 -9 -6 -18 -6 -20 0 -2 -7
-4 -15 -4 -18 0 -20 26 -2 33 23 10 29 7 23 -9z m764 -10 c0 -8 -4 -12 -10 -9
-5 3 -10 13 -10 21 0 8 5 12 10 9 6 -3 10 -13 10 -21z m-2180 1 c0 -16 -35
-21 -44 -6 -8 12 4 21 26 21 10 0 18 -7 18 -15z m-716 -10 c-4 -8 -10 -15 -15
-15 -5 0 -9 7 -9 15 0 8 7 15 15 15 9 0 12 -6 9 -15z m251 0 c0 -6 -10 -11
-22 -13 -22 -3 -30 8 -16 22 10 9 38 3 38 -9z m89 -1 c4 -9 4 -19 2 -22 -10
-9 -36 8 -36 23 0 20 26 19 34 -1z m286 6 c0 -5 -9 -10 -21 -10 -11 0 -17 5
-14 10 3 6 13 10 21 10 8 0 14 -4 14 -10z m160 -5 c0 -8 -7 -15 -15 -15 -8 0
-15 7 -15 15 0 8 7 15 15 15 8 0 15 -7 15 -15z m140 5 c0 -5 -7 -10 -15 -10
-8 0 -15 5 -15 10 0 6 7 10 15 10 8 0 15 -4 15 -10z m1280 0 c0 -5 -7 -10 -15
-10 -8 0 -15 5 -15 10 0 6 7 10 15 10 8 0 15 -4 15 -10z m90 0 c0 -5 -9 -10
-20 -10 -11 0 -20 5 -20 10 0 6 9 10 20 10 11 0 20 -4 20 -10z m290 -11 c0 -5
-7 -9 -15 -9 -15 0 -20 12 -9 23 8 8 24 -1 24 -14z m-2500 -4 c0 -8 -4 -15
-10 -15 -5 0 -10 7 -10 15 0 8 5 15 10 15 6 0 10 -7 10 -15z m447 9 c-3 -3
-12 -4 -19 -1 -8 3 -5 6 6 6 11 1 17 -2 13 -5z m1433 -15 c0 -5 -4 -9 -10 -9
-5 0 -10 7 -10 16 0 8 5 12 10 9 6 -3 10 -10 10 -16z m858 4 c6 -19 -35 -16
-42 3 -4 11 0 15 16 12 12 -2 23 -9 26 -15z m129 -19 c-9 -9 -28 6 -21 18 4 6
10 6 17 -1 6 -6 8 -13 4 -17z m-2289 -11 c-2 -10 -8 -18 -13 -18 -5 0 -11 8
-13 18 -2 10 3 17 13 17 10 0 15 -7 13 -17z m-699 -10 c0 -5 -3 -9 -9 -11 -5
-2 -10 4 -10 13 0 16 16 14 19 -2z"/>
<path d="M1657 2433 c-4 -3 -7 -15 -7 -25 0 -10 -7 -18 -15 -18 -8 0 -15 -4
-15 -10 0 -5 7 -10 15 -10 24 0 30 4 27 17 -2 7 2 13 8 13 5 0 10 9 10 20 0
20 -11 26 -23 13z"/>
<path d="M2188 2352 c-19 -2 -28 -9 -28 -22 0 -13 -8 -20 -27 -22 -25 -3 -28
-7 -25 -33 2 -16 8 -33 14 -36 6 -4 7 -12 3 -19 -4 -7 1 -13 14 -17 16 -4 21
-13 21 -38 0 -34 23 -64 35 -45 3 5 13 10 21 10 8 0 12 -4 9 -10 -3 -5 -1 -10
4 -10 6 0 11 19 11 43 0 47 7 60 33 70 13 5 17 18 17 52 0 39 -3 45 -21 45
-11 0 -28 8 -37 18 -11 11 -27 17 -44 14z m62 -82 c0 -14 -7 -20 -21 -20 -15
0 -19 -5 -14 -19 6 -20 -22 -39 -35 -24 -11 12 -20 70 -13 77 4 3 24 6 45 6
31 0 38 -3 38 -20z"/>
<path d="M1645 2250 c-3 -5 1 -10 9 -10 9 0 16 5 16 10 0 6 -4 10 -9 10 -6 0
-13 -4 -16 -10z"/>
<path d="M1635 2191 c-8 -15 3 -31 21 -31 9 0 14 7 12 17 -4 20 -24 28 -33 14z"/>
<path d="M1780 1875 c0 -9 5 -15 10 -13 12 4 11 16 -1 24 -5 3 -9 -2 -9 -11z"/>
<path d="M2103 1868 c2 -7 7 -13 12 -13 5 0 10 6 13 13 2 6 -4 12 -13 12 -9 0
-15 -6 -12 -12z"/>
<path d="M2245 1830 c-9 -15 4 -30 26 -30 17 0 18 3 9 20 -12 22 -25 26 -35
10z"/>
<path d="M2080 1811 c0 -12 6 -21 16 -21 9 0 14 7 12 17 -5 25 -28 28 -28 4z"/>
<path d="M2303 1785 c-3 -9 -3 -18 0 -21 9 -9 27 6 27 22 0 19 -19 18 -27 -1z"/>
<path d="M2250 1746 c0 -10 9 -16 21 -16 24 0 21 23 -4 28 -10 2 -17 -3 -17
-12z"/>
<path d="M2342 1718 c3 -7 13 -15 22 -16 12 -3 17 1 14 10 -3 7 -13 15 -22 16
-12 3 -17 -1 -14 -10z"/>
<path d="M2278 1674 c-13 -14 -14 -20 -5 -36 10 -16 8 -22 -13 -38 -29 -23
-123 -29 -115 -7 8 20 -11 40 -32 33 -22 -7 -46 -63 -32 -72 6 -3 16 0 24 6
12 10 16 9 21 -4 3 -9 4 -22 1 -30 -4 -9 0 -12 13 -9 10 3 27 0 38 -6 15 -8
23 -8 27 0 4 6 13 8 21 5 7 -3 22 8 34 24 17 25 26 29 47 24 24 -6 25 -5 19
20 -6 24 -4 27 13 21 16 -5 22 -1 27 19 5 20 1 31 -17 46 -29 24 -50 25 -71 4z"/>
<path d="M2053 1672 c-22 -3 -41 -51 -28 -72 11 -18 65 21 65 47 0 26 -7 30
-37 25z"/>
<path d="M2366 1593 c-9 -9 -7 -33 3 -33 12 0 22 28 12 34 -5 3 -11 3 -15 -1z"/>
<path d="M1970 1575 c-7 -8 -19 -15 -27 -15 -9 0 -13 -8 -11 -22 2 -15 10 -23
23 -23 14 0 19 6 17 18 -2 9 4 20 13 23 16 6 21 34 6 34 -5 0 -14 -7 -21 -15z"/>
<path d="M2416 1554 c-8 -21 -8 -21 14 -27 11 -3 20 -12 20 -21 0 -20 19 -21
27 0 3 8 -4 25 -17 40 -27 28 -36 30 -44 8z"/>
<path d="M2275 1519 c-10 -15 3 -25 16 -12 7 7 7 13 1 17 -6 3 -14 1 -17 -5z"/>
<path d="M2043 1412 c-48 -3 -53 -5 -53 -27 0 -18 4 -22 20 -18 11 3 20 10 20
15 0 7 5 6 14 -1 8 -7 74 -12 175 -14 l161 -2 0 28 0 29 -142 -4 c-79 -2 -167
-4 -195 -6z"/>
<path d="M2413 1413 c-18 -7 -16 -40 3 -47 28 -11 34 -7 34 24 0 29 -9 35 -37
23z"/>
<path d="M1924 1338 c-3 -5 -1 -15 6 -22 13 -16 50 -9 50 9 0 15 -48 26 -56
13z"/>
<path d="M2405 1340 c-8 -13 13 -40 31 -40 20 0 27 19 14 35 -14 17 -36 19
-45 5z"/>
<path d="M2706 1916 c3 -9 11 -16 16 -16 13 0 5 23 -10 28 -7 2 -10 -2 -6 -12z"/>
<path d="M2170 420 c-12 -7 -12 -12 -3 -21 10 -10 14 -9 19 5 8 22 2 27 -16
16z"/>
<path d="M2107 365 c-4 -8 -2 -17 3 -20 13 -8 52 14 45 26 -9 14 -42 11 -48
-6z"/>
<path d="M2200 364 c0 -9 7 -14 17 -12 25 5 28 28 4 28 -12 0 -21 -6 -21 -16z"/>
<path d="M2164 319 c-8 -14 11 -33 25 -25 16 10 13 36 -3 36 -8 0 -18 -5 -22
-11z"/>
<path d="M2235 320 c-8 -14 3 -30 21 -30 8 0 14 9 14 20 0 21 -24 28 -35 10z"/>
<path d="M684 149 c-9 -15 11 -33 30 -26 9 4 13 13 10 22 -7 17 -30 20 -40 4z"/>
</g>
</svg>
